<svg width="23" height="16" viewBox="0 0 23 16" fill="none" xmlns="http://www.w3.org/2000/svg">
<path d="M8.85986 3.40323L8.53831 3.09432C7.65403 2.16757 6.3946 1.74632 5.18876 1.97099C3.33982 2.2799 2 3.96489 2 5.93072V6.07113C2 7.25062 2.45554 8.37395 3.25943 9.16028L8.85986 14.7607" stroke="#017DF8" stroke-width="2.53953"/>
<path d="M6.31494 5.68089V5.51628C6.31494 3.21174 7.88561 1.23643 10.0531 0.874286C11.4667 0.61091 12.9432 1.10474 13.9798 2.19116L14.3568 2.5533L14.7023 2.19116C15.739 1.10474 17.2154 0.61091 18.629 0.874286C20.7965 1.23643 22.3986 3.21174 22.3986 5.51628V5.68089C22.3986 7.06361 21.8332 8.38049 20.8908 9.3023L15.2049 14.8661C14.985 15.0966 14.6709 15.1953 14.3568 15.1953C14.0112 15.1953 13.6971 15.0966 13.4772 14.8661L7.79137 9.3023C6.84897 8.38049 6.31494 7.06361 6.31494 5.68089Z" fill="#1BF2DA"/>
</svg>
