<svg width="49" height="48" viewBox="0 0 49 48" fill="none" xmlns="http://www.w3.org/2000/svg">
<g filter="url(#filter0_b_142_615)">
<rect x="0.174194" width="48" height="48" rx="24" fill="#F3F4F5" fill-opacity="0.8"/>
<path d="M19.2914 30.9238L17.7777 29.4102C17.3871 29.0195 17.2406 28.4336 17.3871 27.8477C17.5336 27.4082 17.7289 26.8711 17.973 26.1875H12.8461C12.4066 26.1875 12.016 25.9922 11.8207 25.6016C11.5765 25.2598 11.5765 24.8203 11.8207 24.4297L14.3597 20.1328C14.9945 19.0586 16.1664 18.375 17.3871 18.375H21.4398C21.5375 18.1797 21.6351 18.0332 21.7816 17.8379C25.7855 11.9297 31.7426 11.7344 35.2582 12.418C35.8441 12.5156 36.2836 12.9551 36.3812 13.541C37.0648 17.0566 36.8695 23.0137 30.9613 27.0176C30.766 27.1641 30.5707 27.2617 30.4242 27.3594V31.4121C30.4242 32.6328 29.7406 33.8047 28.6664 34.4395L24.3695 36.9785C23.9789 37.1738 23.5394 37.2227 23.1976 36.9785C22.807 36.7832 22.6117 36.3926 22.6117 35.9531V30.7285C21.8793 30.9727 21.2933 31.168 20.8539 31.3145C20.3168 31.5098 19.682 31.3633 19.2914 30.9238ZM30.4242 20.3281C31.4984 20.3281 32.3773 19.498 32.3773 18.375C32.3773 17.3008 31.4984 16.4219 30.4242 16.4219C29.3011 16.4219 28.4711 17.3008 28.4711 18.375C28.4711 19.498 29.3011 20.3281 30.4242 20.3281Z" fill="#7128F6"/>
</g>
<defs>
<filter id="filter0_b_142_615" x="-3.82581" y="-4" width="56" height="56" filterUnits="userSpaceOnUse" color-interpolation-filters="sRGB">
<feFlood flood-opacity="0" result="BackgroundImageFix"/>
<feGaussianBlur in="BackgroundImageFix" stdDeviation="2"/>
<feComposite in2="SourceAlpha" operator="in" result="effect1_backgroundBlur_142_615"/>
<feBlend mode="normal" in="SourceGraphic" in2="effect1_backgroundBlur_142_615" result="shape"/>
</filter>
</defs>
</svg>
