<svg width="17" height="13" viewBox="0 0 17 13" fill="none" xmlns="http://www.w3.org/2000/svg">
<path d="M5.82812 6.26562C5.00781 6.5 4.42188 7.22656 4.49219 8C4.75 7.69531 5.17188 7.4375 5.66406 7.27344L5.82812 6.26562ZM3.22656 7.41406L2.5 3.21875C2.47656 3.17188 2.5 3.14844 2.5 3.14844C3.85938 2.39844 5.38281 2 6.92969 2C6.95312 2 7 2 7.04688 2C7.35156 1.69531 7.77344 1.48438 8.24219 1.39062C8.6875 1.32031 9.13281 1.29688 9.57812 1.27344C9.34375 0.945312 9.01562 0.710938 8.61719 0.640625C8.05469 0.546875 7.49219 0.5 6.92969 0.5C5.125 0.5 3.34375 0.96875 1.77344 1.85938C1.21094 2.16406 0.90625 2.82031 1.02344 3.47656L1.75 7.67188C2.10156 9.57031 4.96094 11 6.55469 11C6.625 11 6.71875 11 6.78906 11C6.46094 10.6016 6.13281 10.0391 5.85156 9.40625C4.75 9.10156 3.36719 8.1875 3.22656 7.41406ZM5.52344 4.20312C5.5 4.10938 5.47656 4.01562 5.42969 3.94531C5.24219 4.15625 4.9375 4.29688 4.60938 4.36719C4.25781 4.4375 3.92969 4.36719 3.67188 4.25C3.67188 4.34375 3.64844 4.4375 3.67188 4.53125C3.76562 5.04688 4.25781 5.375 4.75 5.28125C5.26562 5.21094 5.61719 4.71875 5.52344 4.20312ZM15.2031 3.33594C13.1172 2.1875 10.7266 1.76562 8.35938 2.14062C7.72656 2.23438 7.21094 2.75 7.09375 3.40625L6.36719 7.625C5.99219 9.66406 8.59375 12.2188 10.0703 12.4766C11.5234 12.7344 14.8516 11.2344 15.2266 9.17188L15.9531 4.97656C16.0703 4.32031 15.7891 3.66406 15.2031 3.33594ZM8.80469 5.60938C8.89844 5.11719 9.39062 4.76562 9.88281 4.85938C10.3984 4.95312 10.75 5.42188 10.6562 5.9375C10.6328 6.03125 10.6094 6.125 10.5625 6.21875C10.3516 6.00781 10.0703 5.84375 9.71875 5.77344C9.39062 5.72656 9.0625 5.77344 8.80469 5.89062C8.78125 5.79688 8.78125 5.70312 8.80469 5.60938ZM10.4453 10.2734C9.13281 10.0391 8.24219 8.89062 8.35938 7.64844C8.82812 8.25781 9.67188 8.72656 10.6797 8.91406C11.6875 9.07812 12.6484 8.91406 13.3047 8.51562C13 9.71094 11.7578 10.5078 10.4453 10.2734ZM13.5156 6.73438C13.3281 6.52344 13.0234 6.35938 12.6953 6.28906C12.3438 6.24219 12.0156 6.28906 11.7578 6.42969C11.7578 6.33594 11.7344 6.24219 11.7578 6.125C11.8516 5.63281 12.3438 5.28125 12.8594 5.375C13.3516 5.46875 13.7031 5.96094 13.6094 6.45312C13.5859 6.54688 13.5625 6.64062 13.5156 6.73438Z" fill="white"/>
</svg>
